<?xml version="1.0" standalone="no"?>
<!DOCTYPE svg PUBLIC "-//W3C//DTD SVG 20010904//EN"
 "http://www.w3.org/TR/2001/REC-SVG-20010904/DTD/svg10.dtd">
<svg version="1.0" xmlns="http://www.w3.org/2000/svg"
 width="631.000000pt" height="631.000000pt" viewBox="0 0 631.000000 631.000000"
 preserveAspectRatio="xMidYMid meet">
<metadata>
Created by potrace 1.11, written by Peter Selinger 2001-2013
</metadata>
<g transform="translate(0.000000,631.000000) scale(0.100000,-0.100000)"
fill="#000000" stroke="none">
<path d="M2317 4313 c-4 -3 -22 -7 -39 -9 -18 -1 -40 -4 -48 -5 -17 -5 -50
-38 -50 -51 0 -5 -4 -7 -9 -3 -6 3 -8 -4 -6 -15 2 -11 0 -20 -4 -20 -15 0 -4
-42 13 -52 13 -8 15 -13 5 -24 -8 -10 -8 -14 0 -14 6 0 11 -4 11 -10 0 -5 8
-19 18 -29 32 -36 42 -50 54 -75 6 -14 15 -23 19 -20 5 3 9 -1 9 -9 0 -8 10
-26 23 -40 45 -52 62 -78 59 -87 -1 -6 5 -10 15 -10 9 0 14 -3 10 -6 -3 -3 5
-17 19 -31 13 -13 21 -29 18 -35 -4 -6 -3 -8 3 -5 11 7 28 -20 24 -36 -1 -5 3
-6 9 -2 5 3 14 -5 20 -19 5 -14 15 -26 21 -26 7 0 10 -3 6 -6 -3 -3 5 -17 19
-31 13 -13 22 -29 19 -34 -4 -5 1 -9 9 -9 9 0 16 -4 16 -10 0 -5 0 -13 0 -17
0 -4 -13 -8 -30 -9 -17 -1 -30 2 -30 9 0 8 -3 8 -8 -1 -6 -9 -27 -12 -65 -10
-31 2 -57 1 -57 -2 0 -3 -59 -5 -130 -5 -72 0 -130 -3 -130 -6 0 -3 -7 -6 -15
-6 -8 0 -15 4 -15 9 0 5 -8 4 -18 -1 -13 -7 -23 -6 -31 2 -8 8 -14 8 -19 2 -4
-6 -38 -11 -77 -12 -58 -2 -72 1 -88 17 -10 11 -15 20 -11 20 4 0 -3 11 -16
25 -13 14 -20 25 -16 25 4 0 -2 10 -14 22 -11 12 -20 28 -20 35 0 7 -5 13 -12
13 -6 0 -9 3 -5 6 3 4 -5 21 -18 39 -14 17 -25 37 -25 43 0 7 -5 12 -11 12 -5
0 -7 5 -4 10 3 6 2 10 -3 10 -5 0 -17 18 -28 40 -10 22 -22 40 -26 40 -5 0 -8
6 -8 13 0 7 -9 23 -20 35 -11 12 -20 26 -20 32 0 5 -4 10 -9 10 -5 0 -16 6
-23 13 -47 46 -210 73 -243 40 -8 -8 -15 -11 -15 -7 0 4 -11 -3 -25 -16 -14
-13 -25 -29 -25 -37 0 -7 -4 -13 -8 -13 -4 0 -8 -10 -9 -22 -1 -11 -6 -24 -10
-27 -5 -3 -7 -17 -6 -31 9 -77 8 -120 -1 -120 -8 0 -8 -3 -1 -8 10 -6 15 -62
18 -207 0 -27 6 -53 11 -57 8 -5 7 -8 -1 -8 -11 0 -9 -42 4 -63 4 -6 1 -7 -7
-2 -9 6 -11 4 -5 -5 4 -7 9 -55 9 -106 1 -51 5 -97 9 -100 4 -4 2 -13 -4 -21
-8 -9 -8 -13 -1 -13 6 0 9 -6 6 -14 -3 -8 0 -17 5 -21 6 -3 9 -11 6 -16 -4 -5
-1 -9 5 -9 7 0 10 -7 6 -15 -3 -8 -1 -15 4 -15 6 0 10 -5 10 -12 0 -6 18 -27
39 -47 60 -54 71 -63 71 -54 0 4 4 3 8 -2 4 -6 21 -17 37 -25 17 -8 41 -22 55
-31 28 -18 70 -31 145 -44 30 -6 50 -10 95 -19 60 -13 78 -16 124 -22 28 -3
53 -7 56 -9 3 -2 28 -5 56 -6 27 -1 57 -6 68 -12 13 -6 16 -6 12 2 -8 12 6 15
17 4 15 -14 495 -22 501 -8 3 6 9 4 14 -4 7 -10 11 -10 17 -1 6 9 10 9 16 -1
5 -8 9 -9 9 -3 0 6 28 10 73 9 39 0 78 3 85 8 8 6 12 5 12 -2 0 -18 -4 -26
-12 -24 -4 2 -5 -3 -2 -10 3 -8 -9 -29 -26 -48 -16 -19 -28 -40 -25 -46 2 -7
-2 -13 -10 -13 -8 0 -14 -3 -13 -7 4 -14 -39 -73 -46 -65 -4 4 -7 3 -6 -3 5
-23 -1 -46 -10 -40 -5 3 -12 -6 -16 -20 -3 -14 -10 -25 -16 -25 -5 0 -6 -4 -3
-10 3 -5 1 -10 -4 -10 -6 0 -11 -6 -11 -14 0 -8 -7 -17 -16 -20 -9 -4 -14 -9
-11 -12 3 -4 -1 -13 -9 -21 -8 -8 -12 -19 -9 -24 4 -5 2 -9 -3 -9 -11 0 -92
-121 -92 -136 0 -5 -9 -16 -19 -24 -11 -7 -18 -17 -15 -22 3 -4 0 -8 -7 -8 -7
0 -10 -3 -6 -6 6 -6 -1 -17 -35 -55 -10 -10 -15 -19 -12 -19 3 0 -4 -13 -16
-30 -12 -16 -19 -30 -15 -30 3 0 -6 -11 -21 -25 -15 -14 -23 -25 -19 -25 4 0
1 -8 -8 -18 -10 -10 -14 -22 -10 -25 3 -4 1 -7 -5 -7 -7 0 -12 -5 -12 -11 0
-7 -8 -18 -17 -26 -11 -8 -12 -11 -3 -7 12 7 13 5 3 -8 -7 -8 -10 -18 -6 -21
3 -4 2 -7 -3 -7 -5 0 -9 -18 -9 -40 0 -22 4 -40 8 -40 5 0 6 -3 4 -7 -4 -8 37
-54 48 -53 22 1 25 -1 19 -12 -5 -7 -3 -8 7 -2 8 4 52 9 99 10 47 2 94 5 105
8 37 9 90 31 96 39 3 5 8 8 10 7 9 -3 62 21 76 35 8 8 19 12 25 9 7 -4 8 -2 4
4 -4 7 -3 12 3 12 11 0 44 27 112 93 27 26 49 45 49 43 0 -3 25 21 56 52 31
31 60 56 65 54 5 -1 9 4 9 12 0 8 9 18 20 21 11 4 18 10 16 14 -6 8 30 42 37
35 2 -2 10 3 18 13 12 14 12 16 0 8 -10 -5 -12 -4 -7 3 4 7 12 12 18 12 6 0
28 18 49 41 24 26 43 38 51 33 7 -4 10 -4 6 1 -9 9 9 45 22 45 6 0 19 9 30 20
11 11 17 20 13 20 -4 0 2 6 12 14 11 8 23 12 28 9 4 -2 6 -1 5 4 -5 14 114
123 126 116 6 -3 8 -3 4 1 -6 8 109 126 151 156 11 8 21 20 21 27 0 7 3 12 8
11 4 -2 24 14 45 35 20 21 37 36 37 32 0 -3 6 0 14 7 8 7 12 16 9 21 -2 4 0 7
4 7 5 0 20 9 35 21 27 22 40 23 298 34 52 2 95 4 95 5 0 3 55 8 155 14 47 3
85 6 85 6 0 1 23 4 50 6 28 3 68 6 90 8 22 3 42 5 45 6 3 2 19 4 35 5 17 2 32
4 35 5 3 1 16 3 30 5 14 2 41 6 60 9 19 3 50 7 68 8 17 1 32 5 32 8 0 3 8 7
18 8 29 3 47 7 57 13 6 4 18 5 28 4 9 -2 17 2 17 8 0 5 3 7 7 4 3 -4 20 2 38
13 18 11 34 18 36 16 2 -3 17 14 33 37 17 22 23 37 15 32 -12 -8 -12 -6 0 8 7
9 10 17 5 17 -5 0 -2 5 6 10 11 7 11 10 2 10 -10 0 -10 5 -2 20 8 15 8 22 -2
25 -8 3 -14 13 -15 23 -2 31 -8 46 -21 60 -7 8 -9 19 -5 25 3 7 3 9 -2 5 -9
-8 -42 31 -37 45 1 4 -5 7 -15 7 -9 0 -13 3 -10 7 4 3 -2 13 -13 20 -11 8 -18
18 -15 23 3 5 -5 12 -19 16 -14 3 -24 9 -23 13 1 3 -1 7 -5 9 -4 1 -20 14 -34
27 -15 14 -33 25 -40 25 -7 0 -18 8 -23 18 -6 9 -11 13 -11 8 0 -6 -7 -1 -16
10 -8 10 -12 12 -8 4 6 -12 3 -11 -12 2 -10 9 -26 18 -34 20 -8 2 -18 7 -21
11 -3 4 -16 9 -27 10 -12 1 -22 4 -22 7 0 3 -12 7 -27 8 -16 1 -29 6 -31 12
-2 5 -10 6 -19 3 -10 -4 -14 -2 -10 4 4 6 -6 9 -28 6 -19 -2 -35 1 -35 6 0 5
-15 10 -32 10 -39 2 -101 8 -108 11 -3 1 -9 2 -15 0 -39 -7 -85 -5 -85 4 0 6
-4 5 -9 -3 -6 -9 -10 -10 -16 -2 -4 7 -12 8 -18 3 -15 -10 -48 -9 -66 2 -10 7
-12 6 -6 -4 6 -9 -2 -11 -34 -8 -22 2 -43 -1 -45 -7 -2 -5 -5 -4 -5 3 -1 10
-6 10 -21 2 -14 -8 -20 -8 -20 0 0 7 -6 8 -19 0 -14 -7 -22 -7 -26 0 -4 7 -12
7 -18 2 -7 -4 -30 -8 -52 -7 -22 0 -48 -3 -59 -8 -13 -6 -16 -6 -12 2 9 14 -9
14 -35 1 -11 -7 -19 -7 -19 -1 0 10 -19 9 -37 -2 -8 -5 -13 -3 -13 4 0 7 -4 8
-12 2 -7 -5 -59 -9 -115 -9 -62 1 -103 -3 -103 -9 0 -5 -5 -3 -10 5 -5 8 -10
10 -10 4 0 -12 -97 -4 -119 10 -15 10 -59 47 -102 87 -15 15 -30 25 -32 22 -3
-2 -16 10 -30 27 -14 16 -31 30 -37 30 -16 0 -60 47 -52 56 4 4 2 4 -5 0 -7
-4 -21 2 -32 13 -11 11 -31 27 -45 36 -14 10 -23 21 -20 26 3 5 1 8 -4 7 -15
-5 -72 44 -65 55 3 6 1 7 -5 3 -6 -3 -22 5 -36 19 -14 14 -26 23 -26 21 0 -5
-36 23 -65 51 -7 7 -15 9 -19 6 -3 -4 -6 1 -6 11 0 9 -4 15 -8 12 -5 -3 -19 6
-30 19 -12 14 -29 25 -37 25 -8 0 -15 4 -15 10 0 5 -16 20 -35 33 -19 13 -32
27 -27 32 4 5 1 5 -7 0 -9 -5 -19 -2 -28 10 -7 11 -13 16 -13 12 0 -4 -17 3
-37 16 -37 23 -99 45 -138 50 -11 1 -26 7 -34 11 -10 7 -12 6 -6 -4 6 -10 4
-11 -6 -4 -19 12 -79 13 -79 1 0 -5 -6 -4 -13 2 -8 6 -17 8 -20 4z m97 -160
c3 -4 13 -8 21 -10 22 -4 49 -11 55 -13 3 -1 8 -2 13 -1 4 0 7 -3 7 -9 0 -5 3
-9 8 -8 11 2 45 -13 65 -30 9 -8 17 -11 17 -7 0 4 8 -2 19 -13 10 -12 22 -22
25 -22 12 0 35 -27 29 -34 -4 -3 3 -6 15 -6 13 0 22 -6 22 -16 0 -8 5 -12 10
-9 6 3 10 1 10 -4 0 -6 5 -11 11 -11 7 0 27 -16 45 -36 19 -19 34 -33 34 -30
0 7 33 -19 72 -56 15 -14 28 -24 28 -21 0 3 7 0 15 -7 8 -7 12 -17 8 -23 -3
-6 -1 -7 5 -3 10 6 41 -17 109 -81 12 -12 23 -19 23 -16 0 3 8 -3 18 -13 9
-11 34 -30 54 -44 21 -14 38 -31 38 -37 0 -15 -21 -13 -32 2 -5 6 -8 5 -8 -4
0 -10 -3 -11 -14 -2 -8 7 -17 8 -19 4 -3 -5 -29 -9 -59 -8 -29 0 -56 -4 -60
-10 -5 -6 -8 -4 -8 5 0 13 -1 13 -10 0 -6 -9 -10 -10 -10 -3 0 8 -9 9 -27 5
-16 -4 -57 -7 -92 -6 -51 0 -65 4 -74 20 -6 10 -10 20 -9 21 1 2 -8 13 -21 26
-30 32 -57 66 -57 73 0 3 -13 19 -30 37 -16 18 -37 47 -45 65 -9 17 -20 32
-26 32 -5 0 -13 8 -16 17 -7 19 -27 45 -60 80 -12 13 -19 23 -15 23 4 1 -3 9
-15 19 -12 10 -19 21 -16 25 4 3 1 6 -5 6 -7 0 -12 5 -12 10 0 10 -6 17 -58
75 -19 21 -21 29 -12 40 14 16 23 19 34 8z m-936 -286 c17 -13 28 -27 24 -31
-4 -4 1 -12 11 -17 9 -6 17 -17 17 -24 0 -8 5 -15 11 -15 5 0 8 -4 4 -9 -3 -6
2 -14 11 -19 9 -5 15 -12 15 -16 -1 -7 18 -43 49 -91 10 -16 27 -45 36 -62 9
-18 19 -33 23 -33 3 0 13 -15 20 -32 18 -40 93 -118 114 -118 9 0 19 -5 22
-10 4 -6 10 -8 15 -5 5 3 11 2 14 -3 5 -8 98 -7 122 2 8 3 14 0 14 -7 0 -7 3
-8 8 -2 4 6 48 10 97 10 50 0 93 4 97 10 5 6 8 5 8 -3 0 -10 5 -10 20 -2 11 6
20 7 20 2 0 -4 9 -8 20 -8 11 0 20 3 20 7 0 8 52 6 67 -4 6 -4 14 -3 17 2 7
11 25 9 45 -3 10 -6 12 -5 7 3 -5 8 15 11 78 9 47 -2 86 -1 86 2 0 3 28 5 63
5 34 0 74 3 90 7 15 4 27 3 27 -2 0 -5 13 -5 30 0 21 6 30 5 30 -3 0 -8 3 -9
8 -1 4 5 31 9 60 9 28 -1 52 2 52 7 0 5 5 6 12 2 15 -10 61 -10 76 0 7 4 12 2
12 -6 0 -8 3 -9 8 -3 4 6 66 10 149 10 84 0 143 4 143 10 0 5 5 4 12 -3 8 -8
15 -8 24 -1 8 7 14 7 18 0 5 -7 16 -7 34 0 31 12 32 12 51 -4 8 -7 12 -7 9 -2
-7 11 78 15 329 19 68 0 113 5 113 11 0 6 5 3 10 -5 6 -10 10 -11 10 -3 0 9 7
10 25 3 15 -6 25 -6 25 0 0 5 9 8 20 7 11 -1 20 -5 20 -10 0 -4 6 -5 13 0 24
16 467 18 467 3 0 -3 16 -7 36 -8 20 -2 49 -9 64 -17 15 -8 30 -11 34 -8 3 4
6 1 6 -5 0 -7 3 -11 8 -10 4 1 20 -4 35 -10 16 -7 33 -12 38 -12 5 0 9 -5 9
-11 0 -5 4 -8 8 -5 5 3 19 -4 30 -15 12 -11 22 -17 22 -14 0 3 10 -4 23 -17
13 -13 35 -32 50 -42 14 -11 24 -23 21 -28 -3 -4 2 -8 11 -8 9 0 13 -4 10 -10
-3 -5 -1 -10 4 -10 6 0 11 -7 11 -15 0 -8 5 -15 11 -15 6 0 9 -7 5 -15 -3 -8
0 -15 6 -15 7 0 6 -5 -2 -15 -7 -8 -16 -13 -20 -10 -5 3 -11 1 -15 -5 -3 -5
-12 -10 -18 -10 -7 0 -6 4 3 10 8 5 10 10 4 10 -6 0 -17 -7 -24 -15 -7 -9 -15
-13 -18 -10 -3 3 -11 0 -19 -6 -10 -9 -13 -8 -13 0 0 7 -5 9 -12 4 -15 -9 -28
-12 -78 -17 -19 -2 -35 -5 -35 -6 0 -3 -65 -10 -117 -13 -27 -1 -48 -4 -48 -7
0 -4 -21 -6 -47 -5 -27 0 -52 -1 -58 -4 -5 -3 -23 -7 -40 -8 -44 -4 -195 -14
-235 -16 -19 -2 -40 -6 -47 -10 -6 -4 -14 -4 -16 0 -4 7 -72 9 -72 3 0 -2
-127 -10 -215 -13 -52 -2 -69 -6 -87 -24 -12 -13 -28 -23 -34 -23 -7 0 -10 -3
-7 -6 3 -3 -14 -24 -39 -47 -25 -23 -75 -70 -111 -104 -35 -35 -69 -63 -74
-63 -5 0 -7 -4 -4 -9 3 -4 -6 -13 -20 -20 -14 -6 -22 -16 -19 -21 3 -6 0 -10
-7 -10 -15 0 -48 -35 -48 -51 0 -5 -4 -8 -9 -4 -6 3 -15 -3 -20 -14 -6 -11
-20 -23 -32 -26 -11 -4 -18 -9 -15 -12 9 -9 -32 -45 -43 -39 -7 4 -8 1 -5 -8
4 -11 0 -16 -10 -16 -9 0 -16 -7 -16 -17 0 -9 -3 -14 -6 -11 -3 4 -35 -24 -72
-60 -36 -37 -62 -60 -57 -52 4 8 -6 0 -23 -17 -18 -18 -32 -37 -32 -42 0 -5
-8 -8 -17 -7 -10 0 -18 -6 -18 -14 -1 -8 -6 -14 -13 -12 -7 1 -12 -5 -12 -13
0 -8 -10 -20 -22 -26 -13 -7 -31 -22 -41 -35 -9 -13 -26 -26 -37 -29 -11 -4
-20 -13 -20 -21 0 -8 -3 -14 -7 -14 -13 0 -93 -78 -93 -90 0 -5 -3 -9 -7 -8
-5 2 -28 -16 -52 -39 -24 -24 -48 -40 -52 -37 -5 3 -9 -3 -9 -12 0 -10 -3 -14
-7 -11 -3 4 -11 3 -17 -2 -30 -25 -86 -50 -86 -39 0 9 -3 9 -12 0 -17 -17 -65
-15 -65 3 0 8 4 15 9 15 5 0 6 5 3 10 -3 6 1 13 9 16 9 3 16 12 16 20 0 8 5
14 10 14 6 0 9 3 8 8 -4 12 48 82 56 75 4 -4 4 0 0 10 -3 10 -1 17 5 17 6 0
11 6 11 14 0 7 7 19 15 26 9 7 13 15 10 18 -2 3 8 16 23 30 15 13 20 21 12 16
-13 -7 -13 -6 0 12 8 10 20 22 25 26 6 4 6 8 1 8 -5 0 1 9 14 20 13 11 19 20
14 20 -5 0 -1 7 9 14 10 8 18 16 17 18 -5 9 24 57 31 52 8 -5 13 10 10 29 0 4
3 7 7 7 8 0 23 26 33 55 4 14 23 33 29 30 3 -2 14 17 25 41 11 24 23 44 28 44
4 0 6 4 3 9 -3 5 1 11 9 15 8 3 15 12 15 20 0 8 5 16 10 18 6 2 12 13 13 25 0
12 4 20 9 17 10 -6 29 32 20 41 -4 5 2 5 13 1 11 -4 16 -4 12 0 -4 4 0 18 8
31 9 13 12 23 8 23 -4 0 1 6 12 13 10 8 15 19 11 25 -4 7 -1 12 9 12 9 0 13 5
10 10 -3 6 1 13 9 16 9 3 16 12 16 20 0 8 4 14 9 14 5 0 12 11 15 25 4 14 10
24 14 21 4 -2 12 6 18 19 10 20 9 22 -4 17 -9 -3 -13 -1 -9 5 4 6 -7 9 -31 6
-20 -2 -80 -5 -134 -6 -53 -1 -95 -4 -93 -7 2 -3 -8 -5 -21 -5 -13 0 -24 4
-24 9 0 4 -8 5 -17 1 -29 -13 -266 -13 -282 -1 -11 8 -13 8 -8 0 5 -9 -30 -11
-132 -10 -77 1 -143 5 -147 9 -4 4 -13 2 -20 -4 -8 -7 -14 -7 -19 1 -4 7 -12
7 -25 0 -11 -6 -21 -6 -25 -1 -3 5 -19 8 -35 6 -18 -3 -30 1 -30 7 0 9 -3 9
-11 1 -8 -8 -20 -8 -34 -3 -13 5 -26 6 -29 3 -3 -4 -6 -1 -6 7 0 10 -3 10 -15
0 -8 -7 -20 -8 -27 -4 -7 5 -24 9 -38 11 -61 4 -80 8 -80 16 0 4 -4 6 -9 2 -6
-3 -29 -1 -53 5 -24 6 -53 13 -65 15 -12 2 -28 7 -35 11 -7 4 -19 9 -28 10
-23 3 -84 28 -91 37 -3 5 -10 9 -15 9 -21 1 -33 11 -27 21 3 6 1 7 -5 3 -12
-7 -64 43 -56 56 3 4 1 8 -3 8 -9 0 -9 0 -17 234 -3 87 -7 161 -10 164 -3 3
-1 11 5 19 6 7 7 13 2 13 -5 0 -10 46 -11 103 -1 56 -4 113 -5 127 -2 14 -2
28 0 33 8 14 39 7 71 -16z"/>
<path d="M5590 2351 c0 -5 7 -11 14 -14 10 -4 13 -1 9 9 -6 15 -23 19 -23 5z"/>
</g>
</svg>
